<svg viewBox="0 0 400 500" xmlns="http://www.w3.org/2000/svg">
  <g transform="translate(200, 280)">
    <g id="body">
      <rect x="-45" y="-30" width="90" height="75" rx="30" stroke="#151515" stroke-width="6" stroke-linecap="round" stroke-linejoin="round" fill="white" />
      <circle cx="0" cy="0" r="3" fill="#151515" opacity="0.4" />
      <circle cx="0" cy="15" r="3" fill="#151515" opacity="0.4" />
    </g>
    <g id="head" transform="translate(0, -90)">
      <rect x="-65" y="-60" width="130" height="100" rx="45" stroke="#151515" stroke-width="6" stroke-linecap="round" stroke-linejoin="round" fill="white" />
      <path d="M0,-60 L0,-75" stroke="#151515" stroke-width="6" stroke-linecap="round" />
      <circle cx="0" cy="-80" r="5" stroke="#151515" stroke-width="5" fill="white" />
      <g id="eye-left" transform="translate(-30, -5)">
        <circle r="14" stroke="#151515" stroke-width="6" fill="white" />
        <circle r="4" cx="3" cy="-3" fill="#151515" />
      </g>
      <g id="eye-right" transform="translate(30, -5)">
        <circle r="14" stroke="#151515" stroke-width="6" fill="white" />
        <circle r="4" cx="3" cy="-3" fill="#151515" />
      </g>
      <path d="M-8,22 Q0,30 8,22" stroke="#151515" stroke-width="4" stroke-linecap="round" fill="none" />
    </g>
    <g id="arm-left" transform="translate(-45, 0)">
      <path d="M0,0 Q-25,10 -20,45" stroke="#151515" stroke-width="6" stroke-linecap="round" stroke-linejoin="round" fill="none" />
      <circle cx="-20" cy="45" r="8" stroke="#151515" stroke-width="5" fill="white" />
    </g>
    <g id="arm-right" transform="translate(45, 0)">
      <path d="M0,0 Q25,10 20,45" stroke="#151515" stroke-width="6" stroke-linecap="round" stroke-linejoin="round" fill="none" />
      <circle cx="20" cy="45" r="8" stroke="#151515" stroke-width="5" fill="white" />
    </g>
    <g id="leg-left" transform="translate(-20, 45)">
      <line x1="0" y1="0" x2="0" y2="40" stroke="#151515" stroke-width="6" stroke-linecap="round" />
      <path d="M-12,40 L8,40" stroke="#151515" stroke-width="6" stroke-linecap="round" />
    </g>
    <g id="leg-right" transform="translate(20, 45)">
      <line x1="0" y1="0" x2="0" y2="40" stroke="#151515" stroke-width="6" stroke-linecap="round" />
      <path d="M-8,40 L12,40" stroke="#151515" stroke-width="6" stroke-linecap="round" />
    </g>
  </g>
</svg>